<svg version="1.1" id="Layer_1" xmlns="http://www.w3.org/2000/svg" xmlns:xlink="http://www.w3.org/1999/xlink" x="0px" y="0px" viewBox="0 0 230.3 54.6" style="enable-background:new 0 0 230.3 54.6;" xml:space="preserve">
 <style type="text/css">
  .st0{fill:#7769AF;}
 </style>
 <g>
  <g>
   <path d="M64.8,25.5l7.1-0.1l-3.7-11h6.4c0.8,2.4,1.9,5.5,3.2,9.4c1.2,3.7,2,6.1,2.3,7.2h-6.3H59.3H53c0.3-1.1,1.1-3.5,2.3-7.2
			c1.3-3.9,2.4-7.1,3.2-9.4h6.5l-3.7,11h1.5L64.8,25.5z M69.8,6.3c1,0.4,1.8,0.9,2.3,1.6c0.3,0.4,0.9,1.8,1.8,4.2l-6.5,0.1l-0.2-0.4
			c-0.1-0.1-0.2-0.2-0.3-0.3l-0.2-0.1c-0.1,0-0.2,0-0.1,0c0.1,0,0.1,0-0.1,0l-0.2,0.1c-0.1,0-0.2,0.1-0.3,0.3l-0.1,0.4l-6.5-0.1
			c0.9-2.4,1.5-3.8,1.7-4.2c0.6-0.7,1.3-1.3,2.3-1.6c1-0.4,1.9-0.6,2.9-0.6H67C67.9,5.7,68.8,5.9,69.8,6.3">
   </path>
   <path d="M81.9,12.3v-1c0-1.6,0.6-3.2,1.8-4.6c1.4-0.7,2.7-1,4-0.9c2.5,0,4.6,1.2,6,3.4c1,1.7,1.6,2.8,1.7,3.2l-6.8-0.1H81.9z
			 M87.7,31.1h-5.8V14.5h5.8L87.7,31.1z M96.2,30.3c-1.4-0.9-2.4-2.2-2.9-3.8c-0.1-0.4-1.3-4.4-3.6-12h2.3l4.1,0
			c1.5,6,2.4,9.4,2.8,10.1c0.2,0.3,0.4,0.5,0.6,0.6c0.2,0.1,0.4,0,0.6-0.1c0.2-0.1,0.3-0.5,0.4-1v-9.6h5.9V26c0,1.6-0.7,2.9-2.1,4
			c-1.3,1-2.6,1.3-3.8,1C98.8,31.2,97.4,30.9,96.2,30.3 M100.4,5.7h5.9v6.3h-5.9V5.7z">
   </path>
   <path d="M112.1,12l-4.2-6.1h6.8l4.1,6.1H112.1z M129.4,14.4l-5.1,7.4v9.2h-5.8v-9.2l-4.8-7.4h6.8l0.5,0.7c0.1,0.2,0.3,0.4,0.6,0.4
			c0.2,0,0.4-0.1,0.5-0.3l0.6-0.8h1.4H129.4z M128.3,5.9h6.8l-4.2,6.1h-6.7L128.3,5.9z">
   </path>
   <path d="M159.1,5.7v5.5l-11.1,0H137V5.7h11.6H159.1z M150.9,31.1h-5.7V14.5h5.7V31.1z">
   </path>
   <path d="M167.2,12.1h-5.7V5.7h5.7V12.1z M167.2,31.1h-5.7v-8.4v-8.2h5.7v1.1V31.1z">
   </path>
   <path d="M169.3,12.3v-1c0-1.6,0.6-3.2,1.8-4.6c1.4-0.7,2.7-1,4-0.9c2.5,0,4.6,1.2,6,3.4c1,1.7,1.6,2.8,1.7,3.2l-6.8-0.1H169.3z
			 M175.1,31.1h-5.8V14.5h5.8L175.1,31.1z M187.5,22.2v-7.7h5.9c0,9.3-0.7,14.5-2.1,15.5c-1.3,0.7-2.6,1.1-4,1.1
			c-1.3,0-2.6-0.3-3.8-0.8c-1.4-0.9-2.4-2.2-2.9-3.8c-0.1-0.4-1.3-4.4-3.6-12h2.3l4.1,0c1.5,6,2.4,9.4,2.8,10.1
			c0.2,0.3,0.4,0.5,0.6,0.6c0.2,0.1,0.4-0.3,0.7-1V22.2z M194.6,12.3c-0.4-1-0.8-1-1.1,0h-1.9h-4v-1.4c0-1.9,0.7-3.3,2.2-4.3
			c1.2-0.6,2.4-0.9,3.6-0.9c0.8,0,1.6,0.1,2.2,0.2c0.6,0.1,1.2,0.5,1.9,1c1.3,1.2,2.1,2.3,2.5,3.5l0.6,1.9H194.6z M200.1,31.1
			l-4.4-15l-0.5-1.6l5.9,0l4.9,16.6H200.1z">
   </path>
   <path d="M224.4,11H216c-0.6,0-1.1,0.3-1.5,0.8l-0.3,0.2h-6.1c0-1.1,0.5-2.4,1.6-3.9c1.3-1.6,3.1-2.4,5.3-2.4l15.2,0V11H224.4z
			 M230.2,31h-15c-2.3,0-4-0.8-5.3-2.4c-1.2-1.5-1.8-3.2-1.8-5.2v-9h5.8v1.1h16.3v5.5h-1.1h-15.2v2.2c0.1,0.6,0.4,1.1,0.8,1.5
			c0.4,0.4,0.9,0.6,1.6,0.6h14V31z">
   </path>
   <path d="M70.8,38.2h-8.6c-0.6,0-1.2,0.3-1.6,0.6L60.3,39H54c0-0.9,0.5-1.9,1.7-3.2c1.4-1.3,3.2-1.9,5.5-1.9l15.6,0v4.3H70.8z
			 M60,54.3h-6v-6.1v-7.2h6v0.9h16.8v4.5H60V54.3z">
   </path>
   <path d="M87.2,39h-5.9v-5.1h5.9V39z M87.2,54.4h-5.9v-6.8l0-6.7h5.9v0.9V54.4z">
   </path>
   <path d="M114.4,33.9v4.4l-11.4,0H91.6v-4.4h12H114.4z M106,54.4h-5.9V40.9h5.9V54.4z">
   </path>
   <path d="M118.7,39.2v-0.8c0-1.3,0.7-2.6,1.9-3.7c1.4-0.6,2.7-0.8,4.1-0.7c2.6,0,4.7,1,6.2,2.7c1.1,1.4,1.7,2.2,1.8,2.6l-7,0H118.7
			z M124.7,54.4h-6V41h6L124.7,54.4z M133.4,53.7c-1.4-0.7-2.4-1.7-3-3.1c-0.1-0.3-1.4-3.5-3.7-9.7h2.3l4.2,0
			c1.5,4.8,2.5,7.6,2.9,8.2c0.2,0.2,0.4,0.4,0.7,0.5c0.2,0.1,0.4,0,0.7-0.1c0.2-0.1,0.3-0.4,0.4-0.8V41h6v9.3c0,1.3-0.7,2.4-2.1,3.2
			c-1.3,0.8-2.6,1.1-3.9,0.8C136.2,54.5,134.7,54.3,133.4,53.7 M137.8,33.9h6V39h-6V33.9z">
   </path>
   <path d="M165,38.2h-8.6c-0.6,0-1.2,0.3-1.6,0.6l-0.3,0.2h-6.3c0-0.9,0.5-1.9,1.7-3.2c1.4-1.3,3.2-1.9,5.5-1.9l15.6,0v4.3H165z
			 M171.1,54.3h-15.5c-2.3,0-4.2-0.6-5.5-1.9c-1.2-1.2-1.8-2.6-1.9-4.2v-7.2h6v0.9h16.8v4.5h-1.1h-15.7v1.8c0.1,0.5,0.4,0.9,0.8,1.2
			c0.4,0.3,0.9,0.5,1.6,0.5h14.5V54.3z">
   </path>
   <path d="M175.5,39l0-0.2c0-1.3,0.5-2.5,1.6-3.4c1.2-1,2.8-1.5,4.8-1.5h18.8v4.5h-17.4c-0.2,0-0.4,0-0.5,0c-0.1,0-0.3,0.1-0.4,0.1
			c-0.2,0.1-0.4,0.2-0.5,0.4H175.5z M176.8,54.6V50h16.7c0.4,0,0.8-0.1,1-0.3c0.1-0.2,0.2-0.4,0.2-0.7c-0.1-0.2-0.2-0.4-0.3-0.5
			c-0.1-0.1-0.3-0.2-0.5-0.3l-13.2-4c-1.7-0.5-3-1.2-4-2.2c-0.4-0.3-0.8-0.7-1-1.1h10.4l3.3,1l6.1,1.8c1.7,0.5,3,1.3,4,2.4
			c0.8,1,1.3,2.1,1.3,3.3c0,1.4-0.5,2.6-1.5,3.6c-1.1,1.1-2.5,1.6-4.2,1.6H176.8z">
   </path>
   <path d="M205.1,39l0-0.2c0-1.3,0.5-2.5,1.6-3.4c1.2-1,2.8-1.5,4.8-1.5h18.8v4.5h-17.4c-0.2,0-0.4,0-0.5,0c-0.1,0-0.3,0.1-0.4,0.1
			c-0.2,0.1-0.4,0.2-0.5,0.4H205.1z M206.3,54.6V50H223c0.4,0,0.8-0.1,1-0.3c0.1-0.2,0.2-0.4,0.2-0.7c-0.1-0.2-0.2-0.4-0.3-0.5
			c-0.1-0.1-0.3-0.2-0.5-0.3l-13.2-4c-1.7-0.5-3-1.2-4-2.2c-0.4-0.3-0.8-0.7-1-1.1h10.4l3.3,1l6.1,1.8c1.7,0.5,3,1.3,4,2.4
			c0.8,1,1.3,2.1,1.3,3.3c0,1.4-0.5,2.6-1.5,3.6c-1.1,1.1-2.5,1.6-4.2,1.6H206.3z">
   </path>
   <path class="st0" d="M18,3c5.1-3.3,8.8,7,7.3,9.4c-1.5,2.4-6.9,5.3-9,0.5C14.2,8.1,15.9,4.3,18,3">
   </path>
   <path class="st0" d="M27,14.6C31.2,8.8,40-1.6,42.2,0.2C44.5,2,54.8,11,52.8,13.2c-2,2.2-10.5-5.7-11.4-7
			C40.5,4.9,27,14.6,27,14.6">
   </path>
   <path class="st0" d="M25.9,15.4c-3.8,6.1-11.9,17-14.2,15.4C9.2,29.2-1.7,20.9,0.2,18.6c1.9-2.3,10.9,5,11.9,6.2
			C13.1,26,25.9,15.4,25.9,15.4">
   </path>
   <path class="st0" d="M27.4,14.7c-8.8,1.3,14.5,8.5,15.6,17.2c-2.3,3.2-14.7,9.5-13.7,14.1c1,4.6,12.6,7.6,17.5,8.3
			c4.9,0.7,4.8-4.4,2.5-6c-2.3-1.7-14.5-3.9-13.4-5.1c1.1-1.1,8.7-9.7,7.6-13.8C42.5,25.1,32.5,13.9,27.4,14.7">
   </path>
   <path d="M228.8,0c0.8,0,1.5,0.7,1.5,1.5c0,0.8-0.7,1.5-1.5,1.5c-0.8,0-1.5-0.7-1.5-1.5C227.3,0.7,227.9,0,228.8,0L228.8,0z
			 M228.8,0.2c-0.7,0-1.2,0.6-1.2,1.3c0,0.7,0.5,1.3,1.2,1.3c0.7,0,1.2-0.6,1.2-1.3C230,0.8,229.4,0.2,228.8,0.2L228.8,0.2z
			 M228.5,2.4h-0.3V0.7c0.1,0,0.3,0,0.5,0c0.3,0,0.4,0.1,0.5,0.1c0.1,0.1,0.2,0.2,0.2,0.3c0,0.2-0.1,0.4-0.3,0.4v0
			c0.1,0,0.2,0.2,0.3,0.4c0,0.3,0.1,0.4,0.1,0.4h-0.3c0-0.1-0.1-0.2-0.1-0.4c0-0.2-0.1-0.3-0.4-0.3h-0.2V2.4z M228.5,1.4h0.2
			c0.2,0,0.4-0.1,0.4-0.3c0-0.1-0.1-0.3-0.4-0.3c-0.1,0-0.1,0-0.2,0V1.4z">
   </path>
  </g>
 </g>
</svg>